<svg xmlns="http://www.w3.org/2000/svg" xmlns:xlink="http://www.w3.org/1999/xlink" width="500" zoomAndPan="magnify" viewBox="0 0 375 374.999991" height="500" preserveAspectRatio="xMidYMid meet" version="1.0"><defs><clipPath id="040699b8ff"><path d="M 67.613281 68.25 L 307 68.25 L 307 127.964844 L 67.613281 127.964844 Z M 67.613281 68.25 " clip-rule="nonzero"/></clipPath><clipPath id="99dd6f2f9c"><path d="M 67.613281 254.695312 L 307 254.695312 L 307 314 L 67.613281 314 Z M 67.613281 254.695312 " clip-rule="nonzero"/></clipPath><clipPath id="9ab621e42a"><path d="M 157.644531 68.242188 L 217 68.242188 L 217 308.011719 L 157.644531 308.011719 Z M 157.644531 68.242188 " clip-rule="nonzero"/></clipPath><clipPath id="400b7bfb2d"><path d="M 69.808594 140.628906 L 147.140625 140.628906 L 147.140625 164.6875 L 69.808594 164.6875 Z M 69.808594 140.628906 " clip-rule="nonzero"/></clipPath><clipPath id="e959913187"><path d="M 69.023438 178.9375 L 128.601562 178.9375 L 128.601562 203 L 69.023438 203 Z M 69.023438 178.9375 " clip-rule="nonzero"/></clipPath><clipPath id="790639e748"><path d="M 69.808594 217.25 L 147.925781 217.25 L 147.925781 241.308594 L 69.808594 241.308594 Z M 69.808594 217.25 " clip-rule="nonzero"/></clipPath><clipPath id="50bb5108e6"><path d="M 227.859375 140.628906 L 307 140.628906 L 307 164.6875 L 227.859375 164.6875 Z M 227.859375 140.628906 " clip-rule="nonzero"/></clipPath><clipPath id="d5df72bae1"><path d="M 255.535156 140.992188 L 279.597656 140.992188 L 279.597656 241.671875 L 255.535156 241.671875 Z M 255.535156 140.992188 " clip-rule="nonzero"/></clipPath><clipPath id="e98e089eb5"><path d="M 67.613281 140.628906 L 91.671875 140.628906 L 91.671875 241 L 67.613281 241 Z M 67.613281 140.628906 " clip-rule="nonzero"/></clipPath></defs><g clip-path="url(#040699b8ff)"><path fill="#000000" d="M 67.613281 68.25 L 306.964844 68.25 L 306.964844 127.414062 L 67.613281 127.414062 Z M 67.613281 68.25 " fill-opacity="1" fill-rule="nonzero"/></g><g clip-path="url(#99dd6f2f9c)"><path fill="#000000" d="M 67.613281 254.695312 L 306.964844 254.695312 L 306.964844 313.859375 L 67.613281 313.859375 Z M 67.613281 254.695312 " fill-opacity="1" fill-rule="nonzero"/></g><g clip-path="url(#9ab621e42a)"><path fill="#000000" d="M 157.644531 308.011719 L 157.644531 68.660156 L 216.808594 68.660156 L 216.808594 308.011719 Z M 157.644531 308.011719 " fill-opacity="1" fill-rule="nonzero"/></g><g clip-path="url(#400b7bfb2d)"><path fill="#f39237" d="M 69.808594 140.628906 L 147.152344 140.628906 L 147.152344 165.238281 L 69.808594 165.238281 Z M 69.808594 140.628906 " fill-opacity="1" fill-rule="nonzero"/></g><g clip-path="url(#e959913187)"><path fill="#f39237" d="M 69.023438 178.9375 L 128.789062 178.9375 L 128.789062 203.546875 L 69.023438 203.546875 Z M 69.023438 178.9375 " fill-opacity="1" fill-rule="nonzero"/></g><g clip-path="url(#790639e748)"><path fill="#f39237" d="M 69.808594 217.25 L 147.152344 217.25 L 147.152344 241.859375 L 69.808594 241.859375 Z M 69.808594 217.25 " fill-opacity="1" fill-rule="nonzero"/></g><g clip-path="url(#50bb5108e6)"><path fill="#0098d4" d="M 227.859375 140.628906 L 306.960938 140.628906 L 306.960938 165.238281 L 227.859375 165.238281 Z M 227.859375 140.628906 " fill-opacity="1" fill-rule="nonzero"/></g><g clip-path="url(#d5df72bae1)"><path fill="#0098d4" d="M 279.597656 140.992188 L 279.597656 241.1875 L 254.988281 241.1875 L 254.988281 140.992188 Z M 279.597656 140.992188 " fill-opacity="1" fill-rule="nonzero"/></g><g clip-path="url(#e98e089eb5)"><path fill="#f39237" d="M 91.671875 140.628906 L 91.671875 240.824219 L 67.0625 240.824219 L 67.0625 140.628906 Z M 91.671875 140.628906 " fill-opacity="1" fill-rule="nonzero"/></g></svg>